<?xml version="1.0" encoding="utf-8"?>
<!-- Generator: Adobe Illustrator 19.0.0, SVG Export Plug-In . SVG Version: 6.00 Build 0)  -->
<svg version="1.1" id="Layer_1" xmlns="http://www.w3.org/2000/svg" xmlns:xlink="http://www.w3.org/1999/xlink" x="0px" y="0px"
	 viewBox="0 0 1920 1080" style="enable-background:new 0 0 1920 1080;" xml:space="preserve">
<style type="text/css">
	.st0{fill:none;stroke:#FFFFFF;stroke-width:20;stroke-miterlimit:10;}
	.st1{fill:#FFFFFF;stroke:#FFFFFF;stroke-width:20;stroke-miterlimit:10;}
	.st2{fill:none;stroke:#FFFFFF;stroke-width:12;stroke-miterlimit:10;}
	.st3{fill:none;stroke:#FFFFFF;stroke-width:10;stroke-miterlimit:10;}
	.st4{fill:#6FCFF0;}
	.st5{fill:#FFFFFF;}
</style>
<path id="XMLID_3_" class="st0" d="M714.4,1000.4V350.5c0,0,236.1-426,490.5,0v649.9"/>
<rect id="XMLID_5_" x="674.9" y="342.1" class="st1" width="81" height="16.5"/>
<rect id="XMLID_6_" x="674.9" y="468.1" class="st1" width="81" height="16.5"/>
<rect id="XMLID_7_" x="1164.3" y="342.1" class="st1" width="81" height="16.5"/>
<rect id="XMLID_8_" x="1164.3" y="468.1" class="st1" width="81" height="16.5"/>
<rect id="XMLID_9_" x="695.9" y="358.6" class="st1" width="36" height="109.5"/>
<rect id="XMLID_10_" x="1186.8" y="358.6" class="st1" width="36" height="109.5"/>
<polygon id="XMLID_11_" class="st1" points="674.9,1000.4 755.9,1000.4 731.9,952.6 695.9,952.6 "/>
<polygon id="XMLID_12_" class="st1" points="1164.3,1000.4 1245.3,1000.4 1221.3,952.6 1185.3,952.6 "/>
<line id="XMLID_4_" class="st0" x1="714.4" y1="350.5" x2="1204.8" y2="350.5"/>
<ellipse id="XMLID_13_" class="st2" cx="960.7" cy="253.7" rx="78.5" ry="82.4"/>
<path id="XMLID_15_" class="st3" d="M756.9,336.1c0,0,103.1-120,125.2-100.5"/>
<path id="XMLID_16_" class="st3" d="M797.8,342.1c0,0,73.4-82.7,84.4-64.5"/>
<path id="XMLID_17_" class="st3" d="M840,342.1c0,0,53.9-61.1,62.1-33.6"/>
<path id="XMLID_18_" class="st3" d="M1156.3,342.1c0,0-115.4-145.9-117.1-108.6"/>
<path id="XMLID_19_" class="st3" d="M1112.8,342.1c0,0-66.7-95.2-73.6-75"/>
<path id="XMLID_20_" class="st3" d="M1069.3,342.1c0,0-36.6-70.9-44.5-40.7"/>
<rect id="XMLID_1_" x="-22.3" y="46.4" class="st4" width="0" height="0"/>
<rect id="XMLID_14_" x="943.6" y="142.7" class="st5" width="32" height="42"/>
<path id="XMLID_21_" class="st5" d="M973.7,146H945c-6.6,0-12-5.4-12-12v0c0-6.6,5.4-12,12-12h28.7c6.6,0,12,5.4,12,12v0
	C985.7,140.6,980.3,146,973.7,146z"/>
<rect id="XMLID_22_" x="0.1" y="776.6" class="st5" width="705.1" height="52.5"/>
<rect id="XMLID_23_" x="0.1" y="899.6" class="st5" width="705.1" height="52.5"/>
<rect id="XMLID_24_" x="1210.8" y="776.6" class="st5" width="709.3" height="52.5"/>
<rect id="XMLID_25_" x="1210.8" y="899.6" class="st5" width="715.2" height="52.5"/>
<rect id="XMLID_26_" x="33.2" y="729.6" class="st5" width="59.9" height="280.4"/>
<rect id="XMLID_27_" x="127.2" y="704" class="st5" width="59.9" height="306"/>
<rect id="XMLID_28_" x="221.2" y="680" class="st5" width="59.9" height="330"/>
<rect id="XMLID_29_" x="315.1" y="656" class="st5" width="59.9" height="354"/>
<rect id="XMLID_30_" x="409.1" y="634" class="st5" width="59.9" height="376"/>
<rect id="XMLID_31_" x="601.1" y="601" class="st5" width="59.9" height="409"/>
<rect id="XMLID_32_" x="505.1" y="616" class="st5" width="59.9" height="394"/>
<rect id="XMLID_33_" x="1261.5" y="601" class="st5" width="59.9" height="409"/>
<rect id="XMLID_34_" x="1360.1" y="616" class="st5" width="59.9" height="394"/>
<rect id="XMLID_35_" x="1457.1" y="634" class="st5" width="59.9" height="376"/>
<rect id="XMLID_36_" x="1551.6" y="656" class="st5" width="59.9" height="354"/>
<rect id="XMLID_37_" x="1645.7" y="680" class="st5" width="59.9" height="330"/>
<rect id="XMLID_38_" x="1741.2" y="704" class="st5" width="59.9" height="306"/>
<rect id="XMLID_39_" x="1836.2" y="729.6" class="st5" width="59.9" height="280.4"/>
</svg>
