<svg id="clouds" xmlns="http://www.w3.org/2000/svg" 
xmlns:xlink="http://www.w3.org/1999/xlink" 
viewBox="0 0 1920 1080" shape-rendering="geometricPrecision" 
text-rendering="geometricPrecision">
<style>
	<![CDATA[
		#clouds-cloud3_to {
			animation: clouds-cloud3_to__to 20000ms linear infinite normal forwards
		}
		
		@keyframes clouds-cloud3_to__to { 
			0% {transform: translate(-254.907993px,336.065460px)} 
			100% {transform: translate(2165.714536px,332.024734px)} 
		}
		
		#clouds-cloud2_to {
			animation: clouds-cloud2_to__to 25000ms linear infinite normal forwards
		}
		
		@keyframes clouds-cloud2_to__to { 
			0% {transform: translate(2280.612555px,184.894501px)} 
			100% {transform: translate(-360.001454px,183.894501px)} 
		}
		
		#clouds-cloud1_to {
			animation: clouds-cloud1_to__to 15000ms linear infinite normal forwards
		}
		
		@keyframes clouds-cloud1_to__to { 
			0% {transform: translate(-190.857770px,76.541560px)} 
			100% {transform: translate(2124.477850px,75.541560px)} 
	}]]>
</style>
<g id="clouds-clouds">
	<g id="clouds-cloud3_to" transform="translate(-254.907993,336.065460)">
		<path id="clouds-cloud3" d="M86.300000,408.700000C86.300000,408.700000,115.200000,407.800000,121.500000,
		415.700000C127.800000,423.500000,148.600000,415.700000,148.600000,415.700000C148.600000,415.700000,161.200000,
		407,165,419.200000C168.800000,431.400000,184.500000,414,184.500000,414C184.500000,414,226.600000,441.800000,
		259.400000,423.500000C259.400000,423.500000,299,443.600000,323.600000,419.200000C323.600000,419.200000,366.400000,
		420,377.100000,425.300000C377.100000,425.300000,396.600000,436.500000,413.600000,420C413.600000,420,418.600000,
		434.700000,441.900000,420C441.900000,420,461.400000,437.400000,472.100000,423.500000C472.100000,423.500000,490.300000,
		439.900000,506.700000,420C506.700000,420,531.900000,440,549.500000,415.700000C549.500000,415.700000,573.400000,430.500000,
		577.200000,402.700000C581,374.900000,555.800000,387.900000,555.800000,387.900000C555.800000,387.900000,567.100000,366.200000,
		542,360.100000C542,360.100000,542,341.900000,530.700000,345.300000C530.700000,345.300000,562.800000,296.600000,528.200000,
		299.200000C528.200000,299.200000,526.900000,283.600000,517.500000,287C517.500000,287,528.800000,260.900000,508.700000,
		245.300000C488.600000,229.700000,478.500000,260.100000,478.500000,260.100000L469.700000,266.200000C469.700000,266.200000,
		453.300000,223.600000,441.400000,288.800000C441.400000,288.800000,432,278.400000,426.900000,294C426.900000,294,414.300000,
		293.100000,411.200000,307.900000C411.200000,307.900000,391.100000,316.600000,394.800000,328.800000C394.800000,328.800000,
		380.300000,327.900000,376.600000,344.400000C376.600000,344.400000,379.700000,302.700000,344.500000,294.900000C344.500000,
		294.900000,312.400000,290.600000,310.500000,325.300000C310.500000,325.300000,298.500000,304.400000,283.400000,
		323.600000C283.400000,323.600000,278.400000,299.300000,265.200000,308C265.200000,308,257,258.500000,212.400000,
		276.700000C212.400000,276.700000,172.800000,294.900000,180.300000,350.600000C180.300000,350.600000,167.700000,
		326.300000,154.500000,343.600000C154.500000,343.600000,144.400000,350.600000,153.200000,367.900000C153.200000,
		367.900000,115.500000,352.300000,116.100000,387C115.900000,386.900000,83.800000,393,86.300000,408.700000Z" 
		transform="translate(-331.875748,-336.065460)" fill="rgb(214,233,240)" stroke="none" stroke-width="1"/>
	</g>
	<g id="clouds-cloud2_to" transform="translate(2280.612555,184.894501)">
		<path id="clouds-cloud2" d="M1167.100000,273C1167.100000,273,1189.800000,269.800000,1205.600000,233.300000C1221.400000,
		196.800000,1255.400000,199.200000,1255.400000,199.200000C1255.400000,199.200000,1283.800000,197.300000,1286.900000,
		220C1286.900000,220,1302,198.500000,1313.400000,216.800000C1313.400000,216.800000,1317.200000,188.400000,1343.100000,
		206.100000C1343.100000,206.100000,1328,162.600000,1362,138C1396,113.400000,1420.700000,148.100000,1420.700000,
		148.100000C1420.700000,148.100000,1433.900000,133.600000,1440.300000,139.900000C1440.300000,139.900000,1449.100000,
		128.500000,1457.300000,133C1457.300000,133,1445.300000,105.200000,1466.100000,89.500000C1466.100000,89.500000,
		1495.800000,56.700000,1543.100000,93.900000C1543.100000,93.900000,1565.200000,119.800000,1560.100000,141.200000C1560.100000,
		141.200000,1582.800000,121,1598.600000,141.800000C1598.600000,141.800000,1615,160.700000,1598.600000,191.600000C1598.600000,
		191.600000,1590.400000,204.200000,1582.800000,211.200000C1582.800000,211.200000,1605.500000,220,1594.800000,
		238.300000C1594.800000,238.300000,1626.300000,213.700000,1651.600000,251.500000C1651.600000,251.500000,1659.800000,
		239.500000,1669.300000,245.200000C1669.300000,245.200000,1674.300000,225.600000,1685.700000,234.500000C1685.700000,
		234.500000,1675.600000,186.500000,1731.100000,202.300000C1731.100000,202.300000,1765.800000,160,1775.900000,
		211.100000C1775.900000,211.100000,1825.100000,164.400000,1858.600000,219.900000C1892.100000,275.400000,1813.200000,
		303.800000,1782.900000,279.200000C1782.900000,279.200000,1764.600000,295,1744.400000,281.100000C1744.400000,281.100000,
		1732.400000,303.200000,1701.500000,283C1701.500000,283,1552.600000,308.900000,1433.400000,276.700000C1433.400000,276.700000,
		1369,291.200000,1354.500000,277.300000C1354.500000,277.300000,1345.700000,292.400000,1331.200000,277.300000C1331.200000,
		277.300000,1294.600000,290.500000,1274.400000,278.600000C1274.400000,278.700000,1220.100000,293.800000,1167.100000,273Z" 
		transform="translate(-1516.915466,-184.496353)" fill="rgb(214,233,240)" stroke="none" stroke-width="1"/>
	</g>
	<g id="clouds-cloud1_to" transform="translate(-190.857770,76.541560)">
		<path id="clouds-cloud1" d="M597.700000,161.500000C597.700000,161.500000,576.800000,162.700000,575.100000,
		140.400000C573.400000,118.100000,602.200000,102.900000,614.900000,112.800000C614.900000,112.800000,632.700000,
		83.600000,660.500000,100.800000C660.500000,100.800000,660.500000,78.500000,685.900000,71.800000C711.300000,65.100000,
		721.700000,89.600000,721.700000,89.600000C721.700000,89.600000,730.600000,81,738.700000,85C738.700000,85,731.300000,
		64.400000,752.400000,40.400000C773.500000,16.400000,808.100000,10.400000,836.900000,31C836.900000,31,862.800000,
		50,859.900000,71.800000C859.900000,71.800000,897.100000,63.200000,902.600000,111.400000C902.600000,111.400000,926.600000,
		99.900000,936.400000,124.400000C946.200000,148.900000,916,161.600000,916,161.600000C916,161.600000,898.200000,166.400000,
		883.800000,161.600000C883.800000,161.600000,837.700000,168.500000,808.900000,161.800000C808.900000,161.800000,701.600000,
		179.600000,681.200000,161.300000C681.500000,161.200000,605.400000,172.700000,597.700000,161.500000Z" 
		transform="translate(-756.692322,-94.023443)" fill="rgb(214,233,240)" stroke="none" stroke-width="1"/>
	</g>
</g>
</svg>