<?xml version="1.0" encoding="utf-8"?>
<!-- Generator: Adobe Illustrator 19.0.0, SVG Export Plug-In . SVG Version: 6.00 Build 0)  -->
<svg version="1.1" xmlns="http://www.w3.org/2000/svg" xmlns:xlink="http://www.w3.org/1999/xlink" x="0px" y="0px"
	 viewBox="0 0 1920 1080" style="enable-background:new 0 0 1920 1080;" xml:space="preserve">
<style type="text/css">
	.st12{fill:#6F5648;}
	.st13{fill:#639449;}
	.st14{fill:#C490B9;}
	.st15{fill:#B34C9C;}
	.st16{fill:#B65537;}
</style>
<g id="Orchids">
	<path id="XMLID_116_" class="st12" d="M682.4,565c0,0-2.4,24.2,0.9,26.6c3.3,2.4-2.8,4,6.4,31.4c0,0,16.1,12.9,48,2.2
		c0,0,6.4-13.1,7.3-33c0,0,3.5-1,1.2-27.3C746.1,565,722.2,573.3,682.4,565z"/>
	<path id="XMLID_113_" class="st13" d="M709.3,569c0,0-8.7-15.1-19.2-14.6c-10.5,0.5-32.5,31.9-29.5,50.4s8,16.3,8,16.3
		s-41.4-27.7,10.1-69.9c0,0,11.1-11.1,28.4,7c0,0-8-14.9-18.3-14.1c-10.2,0.8-37.8-9.2-45.8,6.2c0,0-9.1-16.2,32-17.7
		c0,0,26.5,1.2,32.8,14.8c0,0,11.1-28.2,43.6-48.6c0,0,23.6-8.8,20.1,12.3c0,0-7.3-16.4-31.9,6.7c0,0-28.5,32.2-25.4,40.5
		c0,0,34.8-20.3,48.2-7.5c13.3,12.8,19.2,38.6,16.7,41.3c-2.5,2.7-32-17.2-31.9-24c0,0-23.7-6-28.1,1.2L709.3,569z"/>
	<path id="XMLID_110_" class="st14" d="M696.8,541.4c0,0-5.2-4.3-2.4-8.2c0,0,2.1-2.4,6.2,4.5c0,0,0.8,2.2-0.3,3.3
		c0,0,3.6-3.1,6.4,0.8c0,0,1.2,0.9-2.8,2.1c0,0-0.2-0.3-1.4,1.1c0,0-0.2,0.2-1-0.1c0,0-0.1,0.9-2.5,1.6c0,0-3.9,1.9-4.7,2.9
		c-0.8,1-1.2-1.2-1.2-1.2S695.1,541.6,696.8,541.4z"/>
	<path id="XMLID_107_" class="st15" d="M697.7,542.4c0,0,1.8,0,1.9,4c0.1,4,6.5,1.4,7.3-0.8c0,0,1.9-2,2.5-3.7c0,0-1.4-5.3-4.1-6.4
		c-2.7-1.1-4.9,1.4-4.9,1.4s-1.7-1-2.3-1.5c-0.6-0.5-3.6,0.5-4.5,2.8s-2.5,1-2.5,1s-2.4-0.1-2.6,2.2c-0.2,2.3-0.7,3,0.2,7.4
		c0,0,2.9,4.4,8.9,1.2c0,0,2.4-1.7-0.2-4.8C697.5,545.3,697,542.5,697.7,542.4z"/>
	
		<ellipse id="XMLID_104_" transform="matrix(0.9056 -0.4242 0.4242 0.9056 -164.3636 347.2998)" class="st16" cx="698" cy="542.9" rx="0.5" ry="2.5"/>
	<path id="XMLID_101_" class="st14" d="M715.7,527.2c0,0-7.3-14.4,2.5-20.5c0,0,7-3.3,9.5,15.9c0,0-0.3,5.6-3.7,7.1
		c0,0,11-3.4,13.4,8c0,0,1.7,3.2-8.2,2.1c0,0-0.1-0.9-4.3,1.2c0,0-0.5,0.3-2.1-1.3c0,0-1,1.9-7,1.2c0,0-10.5,0.5-13.3,2
		c-2.8,1.4-1.6-3.8-1.6-3.8S711.9,525.9,715.7,527.2z"/>
	<path id="XMLID_98_" class="st15" d="M719.6,532c0,0-3.3-0.9-1.6-8.2c1.7-7.3-11.1-5.6-13.7-2c0,0-4.4,2.8-6.3,5.6
		c0,0,0.1,10.4,4.6,13.6c4.5,3.2,9.5-0.4,9.5-0.4s2.7,2.7,3.5,3.9s6.9,0.7,9.5-3c2.7-3.7,5-0.7,5-0.7s4.4,1.3,5.9-2.8
		c1.5-4.2,2.6-5.2,3-13.7c0,0-3.2-9.4-15.7-6.3c0,0-5.2,2-1.8,8.8C721.5,526.8,721,532.2,719.6,532z"/>
	
		<ellipse id="XMLID_95_" transform="matrix(0.9699 -0.2435 0.2435 0.9699 -108.6929 191.221)" class="st16" cx="719.3" cy="535.3" rx="0.6" ry="3"/>
	
		<ellipse id="XMLID_92_" transform="matrix(0.9995 -3.104576e-002 3.104576e-002 0.9995 -16.2646 22.6216)" class="st16" cx="720.3" cy="535.1" rx="0.6" ry="3"/>
	<path id="XMLID_89_" class="st14" d="M721.6,549.7c0,0-3-13.2,6.2-16.2c0,0,6.4-1.3,4.5,14.9c0,0-1.4,4.5-4.5,5
		c0,0,9.7-0.5,9.3,9.2c0,0,0.8,2.9-7.1,0c0,0,0.1-0.8-3.7,0.1c0,0-0.5,0.2-1.5-1.5c0,0-1.2,1.4-6-0.4c0,0-8.6-1.7-11.2-1.1
		s-0.5-3.5-0.5-3.5S718.8,547.9,721.6,549.7z"/>
	<path id="XMLID_86_" class="st15" d="M723.8,554.5c0,0-2.5-1.4,0.3-7c2.8-5.6-7.9-6.8-10.8-4.4c0,0-4.1,1.4-6.3,3.3
		c0,0-2.1,8.5,0.9,12c3,3.5,7.9,1.6,7.9,1.6s1.6,2.8,2.1,3.9c0.4,1.1,5.4,2,8.4-0.5s4.2,0.4,4.2,0.4s3.3,2,5.4-1.1
		c2.1-3.1,3.2-3.7,5.3-10.5c0,0-0.7-8.3-11.5-8.4c0,0-4.7,0.6-3.3,6.8C726.4,550.6,725,554.9,723.8,554.5z"/>
	<ellipse id="XMLID_82_" class="st16" cx="722.9" cy="557.1" rx="0.5" ry="2.5"/>
	
		<ellipse id="XMLID_78_" transform="matrix(0.977 0.2132 -0.2132 0.977 135.4464 -141.5217)" class="st16" cx="723.8" cy="557.1" rx="0.5" ry="2.5"/>
	<path id="XMLID_75_" class="st14" d="M699.9,557.2c0,0,6.7-0.3,7.3,4.5c0,0,0.1,3.2-7.7,0.8c0,0-2.1-1.1-2-2.6c0,0-0.6,4.7-5.3,3.7
		c0,0-1.5,0.1,0.6-3.4c0,0,0.4,0.1,0.3-1.8c0,0,0-0.3,0.8-0.6c0,0-0.6-0.7,0.7-2.9c0,0,1.6-4,1.5-5.4s1.7,0.1,1.7,0.1
		S701,555.9,699.9,557.2z"/>
	<path id="XMLID_51_" class="st15" d="M698.6,557.1c0,0-1.4,1.2-4.1-1.7c-2.7-2.9-5.7,3.3-4.9,5.5c0,0-0.1,2.8,0.6,4.4
		c0,0,4.6,3,7.3,2c2.7-1,2.6-4.3,2.6-4.3s2-0.4,2.8-0.4s2.3-2.8,1.5-5.1c-0.9-2.3,1.2-2.4,1.2-2.4s1.9-1.5,0.5-3.4s-1.5-2.7-5.2-5.4
		c0,0-5.1-1.3-7.4,5.1c0,0-0.6,2.9,3.4,3.4C696.8,554.8,699.1,556.6,698.6,557.1z"/>
	<path id="XMLID_42_" class="st16" d="M695.8,555.9c0.1-0.2,1.2,0,2.5,0.5"/>
	<path id="XMLID_164_" class="st12" d="M1170.2,565.8c0,0-2.4,24.2,0.9,26.6c3.3,2.4-2.8,4,6.4,31.4c0,0,16.1,12.9,48,2.2
		c0,0,6.4-13.1,7.3-33c0,0,3.5-1,1.2-27.3C1233.9,565.8,1210,574.1,1170.2,565.8z"/>
	<path id="XMLID_161_" class="st13" d="M1197.1,569.8c0,0-8.7-15.1-19.2-14.6c-10.5,0.5-32.5,31.9-29.5,50.4c3,18.5,8,16.3,8,16.3
		s-41.4-27.7,10.1-69.9c0,0,11.1-11.1,28.4,7c0,0-8-14.9-18.3-14.1c-10.2,0.8-37.8-9.2-45.8,6.2c0,0-9.1-16.2,32-17.7
		c0,0,26.5,1.2,32.8,14.8c0,0,11.1-28.2,43.6-48.6c0,0,23.6-8.8,20.1,12.3c0,0-7.3-16.4-31.9,6.7c0,0-28.5,32.2-25.4,40.5
		c0,0,34.8-20.3,48.2-7.5c13.3,12.8,19.2,38.6,16.7,41.3c-2.5,2.7-32-17.2-31.9-24c0,0-23.7-6-28.1,1.2L1197.1,569.8z"/>
	<path id="XMLID_158_" class="st14" d="M1184.6,542.3c0,0-5.2-4.3-2.4-8.2c0,0,2.1-2.4,6.2,4.5c0,0,0.8,2.2-0.3,3.3
		c0,0,3.6-3.1,6.4,0.8c0,0,1.2,0.9-2.8,2.1c0,0-0.2-0.3-1.4,1.1c0,0-0.2,0.2-1-0.1c0,0-0.1,0.9-2.5,1.6c0,0-3.9,1.9-4.7,2.9
		c-0.8,1-1.2-1.2-1.2-1.2S1182.9,542.4,1184.6,542.3z"/>
	<path id="XMLID_155_" class="st15" d="M1185.5,543.2c0,0,1.8,0,1.9,4c0.1,4,6.5,1.4,7.3-0.8c0,0,1.9-2,2.5-3.7c0,0-1.4-5.3-4.1-6.4
		c-2.7-1.1-4.9,1.4-4.9,1.4s-1.7-1-2.3-1.5s-3.6,0.5-4.5,2.8c-0.9,2.3-2.5,1-2.5,1s-2.4-0.1-2.6,2.2s-0.7,3,0.2,7.4
		c0,0,2.9,4.4,8.9,1.2c0,0,2.4-1.7-0.2-4.8C1185.3,546.1,1184.8,543.3,1185.5,543.2z"/>
	
		<ellipse id="XMLID_152_" transform="matrix(0.9056 -0.4242 0.4242 0.9056 -118.6626 554.2845)" class="st16" cx="1185.8" cy="543.7" rx="0.5" ry="2.5"/>
	<path id="XMLID_149_" class="st14" d="M1203.5,528c0,0-7.3-14.4,2.5-20.5c0,0,7-3.3,9.5,15.9c0,0-0.3,5.6-3.7,7.1
		c0,0,11-3.4,13.4,8c0,0,1.7,3.2-8.2,2.1c0,0-0.1-0.9-4.3,1.2c0,0-0.5,0.3-2.1-1.3c0,0-1,1.9-7,1.2c0,0-10.5,0.5-13.3,2
		c-2.8,1.4-1.6-3.8-1.6-3.8S1199.7,526.7,1203.5,528z"/>
	<path id="XMLID_146_" class="st15" d="M1207.4,532.8c0,0-3.3-0.9-1.6-8.2c1.7-7.3-11.1-5.6-13.7-2c0,0-4.4,2.8-6.3,5.6
		c0,0,0.1,10.4,4.6,13.6c4.5,3.2,9.5-0.4,9.5-0.4s2.7,2.7,3.5,3.9c0.8,1.2,6.9,0.7,9.5-3s5-0.7,5-0.7s4.4,1.3,5.9-2.8
		c1.5-4.2,2.6-5.2,3-13.7c0,0-3.2-9.4-15.7-6.3c0,0-5.2,2-1.8,8.8C1209.3,527.6,1208.8,533,1207.4,532.8z"/>
	
		<ellipse id="XMLID_143_" transform="matrix(0.9699 -0.2435 0.2435 0.9699 -94.2187 310.0056)" class="st16" cx="1207.1" cy="536.2" rx="0.6" ry="3"/>
	
		<ellipse id="XMLID_140_" transform="matrix(0.9995 -3.104576e-002 3.104576e-002 0.9995 -16.0554 37.7661)" class="st16" cx="1208.1" cy="535.9" rx="0.6" ry="3"/>
	<path id="XMLID_137_" class="st14" d="M1209.4,550.6c0,0-3-13.2,6.2-16.2c0,0,6.4-1.3,4.5,14.9c0,0-1.4,4.5-4.5,5
		c0,0,9.7-0.5,9.3,9.2c0,0,0.8,2.9-7.1,0c0,0,0.1-0.8-3.7,0.1c0,0-0.5,0.2-1.5-1.5c0,0-1.2,1.4-6-0.4c0,0-8.6-1.7-11.2-1.1
		c-2.6,0.6-0.5-3.5-0.5-3.5S1206.5,548.8,1209.4,550.6z"/>
	<path id="XMLID_134_" class="st15" d="M1211.6,555.3c0,0-2.5-1.4,0.3-7s-7.9-6.8-10.8-4.4c0,0-4.1,1.4-6.3,3.3c0,0-2.1,8.5,0.9,12
		c3,3.5,7.9,1.6,7.9,1.6s1.6,2.8,2.1,3.9c0.4,1.1,5.4,2,8.4-0.5c2.9-2.5,4.2,0.4,4.2,0.4s3.3,2,5.4-1.1c2.1-3.1,3.2-3.7,5.3-10.5
		c0,0-0.7-8.3-11.5-8.4c0,0-4.7,0.6-3.3,6.8C1214.2,551.4,1212.8,555.8,1211.6,555.3z"/>
	<ellipse id="XMLID_131_" class="st16" cx="1210.7" cy="558" rx="0.5" ry="2.5"/>
	
		<ellipse id="XMLID_128_" transform="matrix(0.977 0.2132 -0.2132 0.977 146.8428 -245.5163)" class="st16" cx="1211.6" cy="558" rx="0.5" ry="2.5"/>
	<path id="XMLID_79_" class="st14" d="M1187.7,558c0,0,6.7-0.3,7.3,4.5c0,0,0.1,3.2-7.7,0.8c0,0-2.1-1.1-2-2.6c0,0-0.6,4.7-5.3,3.7
		c0,0-1.5,0.1,0.6-3.4c0,0,0.4,0.1,0.3-1.8c0,0,0-0.3,0.8-0.6c0,0-0.6-0.7,0.7-2.9c0,0,1.6-4,1.5-5.4s1.7,0.1,1.7,0.1
		S1188.8,556.8,1187.7,558z"/>
	<path id="XMLID_73_" class="st15" d="M1186.4,558c0,0-1.4,1.2-4.1-1.7c-2.7-2.9-5.7,3.3-4.9,5.5c0,0-0.1,2.8,0.6,4.4
		c0,0,4.6,3,7.3,2c2.7-1,2.6-4.3,2.6-4.3s2-0.4,2.8-0.4s2.3-2.8,1.5-5.1c-0.9-2.3,1.2-2.4,1.2-2.4s1.9-1.5,0.5-3.4
		c-1.4-1.9-1.5-2.7-5.2-5.4c0,0-5.1-1.3-7.4,5.1c0,0-0.6,2.9,3.4,3.4C1184.6,555.6,1186.8,557.4,1186.4,558z"/>
	<path id="XMLID_43_" class="st16" d="M1183.6,556.8c0.1-0.2,1.2,0,2.5,0.5"/>
</g>
</svg>
