<svg id="plants" xmlns="http://www.w3.org/2000/svg" 
xmlns:xlink="http://www.w3.org/1999/xlink" 
viewBox="0 0 1920 1080" shape-rendering="geometricPrecision" 
text-rendering="geometricPrecision">
<style>
	<![CDATA[
		#plants-leaf_ts {
			animation: plants-leaf_ts__ts 8000ms linear infinite normal forwards
		}
		
		@keyframes plants-leaf_ts__ts { 
			0% {transform: translate(726.163690px,846.500000px) scale(1,1)} 
			25% {transform: translate(726.163690px,846.500000px) scale(0.873341,0.873341)} 
			50% {transform: translate(726.163690px,846.500000px) scale(1,1)} 
			75% {transform: translate(726.163690px,846.500000px) scale(0.873341,0.873341)} 
			100% {transform: translate(726.163690px,846.500000px) scale(1,1)} 
		}
		
		#plants-leaf2_ts {
			animation: plants-leaf2_ts__ts 8000ms linear infinite normal forwards
		}
		
		@keyframes plants-leaf2_ts__ts { 
			0% {transform: translate(1190.163690px,846.500000px) scale(1,1)} 
			25% {transform: translate(1190.163690px,846.500000px) scale(0.873341,0.873341)} 
			50% {transform: translate(1190.163690px,846.500000px) scale(1,1)} 
			75% {transform: translate(1190.163690px,846.500000px) scale(0.873341,0.873341)} 
			100% {transform: translate(1190.163690px,846.500000px) scale(1,1)} 
		}
	]]>
</style>
<g id="plants-plants">
	<g id="plants-plant">
		<g id="plants-leaf_ts" transform="translate(726.163690,846.500000) scale(1,1)">
			<g id="plants-leaf" transform="translate(-726.163690,-846.500000)">
				<path id="plants-leaf5" d="M711.200000,861.400000C711.200000,861.400000,610.700000,773.600000,725.300000,
				658C725.300000,658,825.300000,741.900000,739,861.400000L711.200000,861.400000Z" 
				fill="rgb(69,181,73)" stroke="none" stroke-width="1"/>
				
				<path id="plants-leaf4" d="M709.500000,858.800000C709.500000,858.800000,639.800000,792,671,705.700000C671,
				705.700000,742.700000,734,723.200000,858.800000L729.500000,858.800000C729.500000,858.800000,727.500000,
				748.200000,772.400000,703.200000C772.400000,703.200000,803.600000,810,750.900000,854.400000L709.500000,
				858.800000Z" fill="rgb(108,189,69)" stroke="none" stroke-width="1"/>
				
				<path id="plants-leaf3" d="M704.800000,861.400000C704.800000,861.400000,638.500000,819.800000,617.500000,
				738.700000C617.500000,738.700000,724.800000,786.700000,721.900000,855L735.100000,855C735.100000,855,734.600000,
				749.200000,826.300000,717.500000C826.300000,717.500000,840.400000,816,743.900000,858L704.800000,861.400000Z" 
				fill="rgb(108,189,69)" stroke="none" stroke-width="1"/>
				
				<path id="plants-leaf2" d="M715.100000,847C715.100000,847,635.100000,783.600000,638,712.400000C638,712.400000,
				689.700000,717.200000,724.600000,847L732.600000,847C732.600000,847,725.800000,743.200000,788.200000,
				739.300000C788.200000,739.300000,829.700000,779.300000,739.400000,849.500000L715.100000,847Z" 
				fill="rgb(156,202,59)" stroke="none" stroke-width="1"/>
				
				<path id="plants-leaf1_2_" d="M705.300000,851.600000C705.300000,851.600000,605.800000,828.200000,613.100000,
				771.600000C613.100000,771.600000,704.300000,757.900000,716,843.700000L722.100000,841.800000C722.100000,
				841.800000,672.600000,752.600000,727.200000,696C727.200000,696,775.500000,741.300000,732.600000,
				843.700000L738.500000,843.700000C738.500000,843.700000,763.400000,762.300000,831.600000,773.700000C831.600000,
				773.700000,839.400000,827.600000,742.800000,851.500000L705.300000,851.500000Z" 
				fill="rgb(208,220,39)" stroke="none" stroke-width="1"/>
			</g>
		</g>
		
		<path id="plants-vase" d="M767.700000,854.100000C767.700000,854.100000,757.500000,870.700000,752.100000,
		871.700000L752.100000,889.300000C752.100000,889.300000,796,914.200000,752.100000,1020.500000C752.100000,1020.500000,
		706.500000,1023.800000,704.800000,1020.500000C704.800000,1020.500000,652.600000,920.500000,701.900000,892.200000L701.900000,
		874.600000C701.900000,874.600000,686.800000,859.400000,686.800000,852.100000C686.800000,852.100000,745.800000,846.200000,
		767.800000,852.100000" fill="rgb(122,78,38)" stroke="none" stroke-width="1"/>
	</g>
	
	<g id="plants-plant_1_">
		<g id="plants-leaf2_ts" transform="translate(1190.163690,846.500000) scale(1,1)">
			<g id="plants-leaf2" transform="translate(-1190.163690,-846.500000)">
				<path id="plants-leaf5_1_" d="M1175.200000,858.300000C1175.200000,858.300000,1074.700000,770.500000,1189.300000,
				654.900000C1189.300000,654.900000,1289.300000,738.800000,1203,858.300000L1175.200000,858.300000Z" 
				fill="rgb(69,181,73)" stroke="none" stroke-width="1"/>
				
				<path id="plants-leaf4_1_" d="M1173.500000,855.700000C1173.500000,855.700000,1103.800000,788.900000,1135,
				702.600000C1135,702.600000,1206.700000,730.900000,1187.200000,855.700000L1193.500000,855.700000C1193.500000,
				855.700000,1191.500000,745.100000,1236.400000,700.100000C1236.400000,700.100000,1267.600000,806.900000,1214.900000,
				851.300000L1173.500000,855.700000Z" fill="rgb(108,189,69)" stroke="none" stroke-width="1"/>
				
				<path id="plants-leaf3_1_" d="M1168.800000,858.300000C1168.800000,858.300000,1102.500000,816.700000,1081.500000,
				735.600000C1081.500000,735.600000,1188.800000,783.600000,1185.900000,851.900000L1199.100000,851.900000C1199.100000,
				851.900000,1198.600000,746.100000,1290.300000,714.400000C1290.300000,714.400000,1304.400000,812.900000,1207.900000,
				854.900000L1168.800000,858.300000Z" fill="rgb(108,189,69)" stroke="none" stroke-width="1"/>
				
				<path id="plants-leaf2_1_" d="M1179,844C1179,844,1099,780.600000,1101.900000,709.400000C1101.900000,709.400000,
				1153.600000,714.200000,1188.500000,844L1196.500000,844C1196.500000,844,1189.700000,740.200000,1252.100000,
				736.300000C1252.100000,736.300000,1293.600000,776.300000,1203.300000,846.500000L1179,844Z" 
				fill="rgb(156,202,59)" stroke="none" stroke-width="1"/>
				
				<path id="plants-leaf1_3_" d="M1169.300000,848.500000C1169.300000,848.500000,1069.800000,825.100000,1077.100000,
				768.500000C1077.100000,768.500000,1168.300000,754.800000,1180,840.600000L1186.100000,838.700000C1186.100000,
				838.700000,1136.600000,749.500000,1191.200000,692.900000C1191.200000,692.900000,1239.500000,738.200000,1196.600000,
				840.600000L1202.500000,840.600000C1202.500000,840.600000,1227.400000,759.200000,1295.600000,770.600000C1295.600000,
				770.600000,1303.400000,824.500000,1206.800000,848.400000L1169.300000,848.400000Z" 
				fill="rgb(208,220,39)" stroke="none" stroke-width="1"/>
			</g>
		</g>
		
		<path id="plants-vase_1_" d="M1231.700000,851C1231.700000,851,1221.500000,867.600000,1216.100000,868.600000L1216.100000,
		886.200000C1216.100000,886.200000,1260,911.100000,1216.100000,1017.400000C1216.100000,1017.400000,1170.500000,1020.700000,
		1168.800000,1017.400000C1168.800000,1017.400000,1116.600000,917.400000,1165.900000,889.100000L1165.900000,
		871.500000C1165.900000,871.500000,1150.800000,856.300000,1150.800000,849C1150.800000,849,1209.800000,843.100000,1231.800000,
		849" fill="rgb(122,78,38)" stroke="none" stroke-width="1"/>
	</g>
</g>
</svg>